<svg width="62" height="54" viewBox="0 0 62 54" fill="none" xmlns="http://www.w3.org/2000/svg">
<path d="M0 25C0 11.1929 11.1929 0 25 0H62V29C62 42.8071 50.8071 54 37 54H0V25Z" fill="white"/>
<path d="M33.18 44.675C29.7 44.675 26.655 44.015 24.045 42.695C21.435 41.375 19.425 39.485 18.015 37.025C16.605 34.565 15.9 31.655 15.9 28.295C15.9 24.935 16.605 22.025 18.015 19.565C19.425 17.075 21.435 15.17 24.045 13.85C26.655 12.53 29.7 11.87 33.18 11.87C37.86 11.87 41.52 12.74 44.16 14.48V23.075C42.84 22.085 41.355 21.365 39.705 20.915C38.055 20.465 36.15 20.24 33.99 20.24C31.17 20.24 29.025 20.945 27.555 22.355C26.115 23.765 25.395 25.745 25.395 28.295C25.395 30.965 26.085 32.99 27.465 34.37C28.875 35.72 30.9 36.395 33.54 36.395C34.83 36.395 35.88 36.215 36.69 35.855V31.85H32.37V25.955H45.195V41.705C42.015 43.685 38.01 44.675 33.18 44.675Z" fill="#003B95"/>
</svg>
