<svg width="240" height="80" viewBox="0 0 240 80" fill="none" xmlns="http://www.w3.org/2000/svg">
<rect width="240" height="80" fill="#1E1E1E"/>
<rect width="240" height="80" fill="#003B95"/>
<path d="M106.14 52.525C103.433 52.525 101.065 52.0117 99.035 50.985C97.005 49.9583 95.4417 48.4883 94.345 46.575C93.2483 44.6617 92.7 42.3983 92.7 39.785C92.7 37.1717 93.2483 34.9083 94.345 32.995C95.4417 31.0583 97.005 29.5767 99.035 28.55C101.065 27.5233 103.433 27.01 106.14 27.01C109.78 27.01 112.627 27.6867 114.68 29.04V35.725C113.653 34.955 112.498 34.395 111.215 34.045C109.932 33.695 108.45 33.52 106.77 33.52C104.577 33.52 102.908 34.0683 101.765 35.165C100.645 36.2617 100.085 37.8017 100.085 39.785C100.085 41.8617 100.622 43.4367 101.695 44.51C102.792 45.56 104.367 46.085 106.42 46.085C107.423 46.085 108.24 45.945 108.87 45.665V42.55H105.51V37.965H115.485V50.215C113.012 51.755 109.897 52.525 106.14 52.525ZM124.424 52.525C122.091 52.525 120.341 51.8717 119.174 50.565C118.008 49.2583 117.424 47.5317 117.424 45.385V35.2H124.424V44.545C124.424 46.2483 125.171 47.1 126.664 47.1C127.341 47.1 127.948 46.9367 128.484 46.61C129.021 46.2833 129.453 45.8167 129.779 45.21V35.2H136.814V52H130.024V50.39C129.324 51.09 128.484 51.6267 127.504 52C126.524 52.35 125.498 52.525 124.424 52.525ZM139.611 26.135H146.611V52H139.611V26.135ZM149.421 26.135H156.421V52H149.421V26.135ZM162.905 33.31C161.855 33.31 160.98 32.9717 160.28 32.295C159.58 31.6183 159.23 30.755 159.23 29.705C159.23 28.6783 159.58 27.8267 160.28 27.15C160.98 26.45 161.855 26.1 162.905 26.1C163.932 26.1 164.795 26.45 165.495 27.15C166.218 27.85 166.58 28.7017 166.58 29.705C166.58 30.7317 166.218 31.595 165.495 32.295C164.795 32.9717 163.932 33.31 162.905 33.31ZM159.405 35.2H166.405V52H159.405V35.2ZM168.681 35.2H175.681L179.111 44.02L182.541 35.2H189.541L182.471 52H175.751L168.681 35.2ZM199.763 52.525C196.38 52.525 193.743 51.755 191.853 50.215C189.963 48.675 189.018 46.4933 189.018 43.67C189.018 40.8933 189.87 38.7 191.573 37.09C193.277 35.48 195.727 34.675 198.923 34.675C200.977 34.675 202.727 35.06 204.173 35.83C205.643 36.5767 206.752 37.615 207.498 38.945C208.245 40.275 208.618 41.7683 208.618 43.425V45.7H195.668C196.228 47.1933 197.92 47.94 200.743 47.94C201.863 47.94 203.007 47.8583 204.173 47.695C205.363 47.5083 206.367 47.2517 207.183 46.925V51.3C206.297 51.6733 205.188 51.965 203.858 52.175C202.528 52.4083 201.163 52.525 199.763 52.525ZM202.003 41.64C201.887 40.8933 201.56 40.3217 201.023 39.925C200.487 39.505 199.752 39.295 198.818 39.295C197.885 39.295 197.15 39.505 196.613 39.925C196.1 40.345 195.785 40.9167 195.668 41.64H202.003ZM210.705 35.2H217.46V37.02C218.113 36.3433 219.011 35.8067 220.155 35.41C221.321 35.0133 222.593 34.815 223.97 34.815V40.24C222.5 40.24 221.193 40.4383 220.05 40.835C218.906 41.2317 218.125 41.815 217.705 42.585V52H210.705V35.2Z" fill="white"/>
<path d="M13 37C13 23.1929 24.1929 12 38 12H75V44C75 57.8071 63.8071 69 50 69H13V37Z" fill="white"/>
<path d="M46.18 56.675C42.7 56.675 39.655 56.015 37.045 54.695C34.435 53.375 32.425 51.485 31.015 49.025C29.605 46.565 28.9 43.655 28.9 40.295C28.9 36.935 29.605 34.025 31.015 31.565C32.425 29.075 34.435 27.17 37.045 25.85C39.655 24.53 42.7 23.87 46.18 23.87C50.86 23.87 54.52 24.74 57.16 26.48V35.075C55.84 34.085 54.355 33.365 52.705 32.915C51.055 32.465 49.15 32.24 46.99 32.24C44.17 32.24 42.025 32.945 40.555 34.355C39.115 35.765 38.395 37.745 38.395 40.295C38.395 42.965 39.085 44.99 40.465 46.37C41.875 47.72 43.9 48.395 46.54 48.395C47.83 48.395 48.88 48.215 49.69 47.855V43.85H45.37V37.955H58.195V53.705C55.015 55.685 51.01 56.675 46.18 56.675Z" fill="#003B95"/>
</svg>
